HIERARCHY
ROOT Hips
{
	OFFSET 0.000000 89.005402 0.000000
	CHANNELS 6 Xposition Yposition Zposition Xrotation Yrotation Zrotation
	JOINT Spine
	{
		OFFSET 0.116900 10.681000 0.373400
		CHANNELS 3 Xrotation Yrotation Zrotation
		JOINT Spine1
		{
			OFFSET 0.000000 13.840401 0.053500
			CHANNELS 3 Xrotation Yrotation Zrotation
			JOINT Spine2
			{
				OFFSET 0.000000 14.712700 -0.366200
				CHANNELS 3 Xrotation Yrotation Zrotation
				JOINT Neck
				{
					OFFSET 0.000000 35.415497 -3.314200
					CHANNELS 3 Xrotation Yrotation Zrotation
					JOINT Head
					{
						OFFSET 0.000000 16.899200 1.218300
						CHANNELS 3 Xrotation Yrotation Zrotation
						JOINT HeadTop_End
						{
							OFFSET 0.000000 22.206207 2.192500
							CHANNELS 3 Xrotation Yrotation Zrotation
							End Site
							{
								OFFSET 0.000000 22.314178 0.000000
							}
						}
					}
				}
				JOINT LeftShoulder
				{
					OFFSET 12.896400 26.716293 -4.548400
					CHANNELS 3 Xrotation Yrotation Zrotation
					JOINT LeftArm
					{
						OFFSET 19.027000 -4.857010 -1.718400
						CHANNELS 3 Xrotation Yrotation Zrotation
						JOINT LeftForeArm
						{
							OFFSET 24.179897 0.000000 0.000000
							CHANNELS 3 Xrotation Yrotation Zrotation
							JOINT LeftHand
							{
								OFFSET 27.156403 0.000000 0.000000
								CHANNELS 3 Xrotation Yrotation Zrotation
								JOINT LeftHandIndex1
								{
									OFFSET 16.441200 0.000000 0.000000
									CHANNELS 3 Xrotation Yrotation Zrotation
									JOINT LeftHandIndex2
									{
										OFFSET 4.821899 0.000000 0.000000
										CHANNELS 3 Xrotation Yrotation Zrotation
										JOINT LeftHandIndex3
										{
											OFFSET 6.386497 0.000000 0.000000
											CHANNELS 3 Xrotation Yrotation Zrotation
											JOINT LeftHandIndex4
											{
												OFFSET 5.188988 0.000000 0.000000
												CHANNELS 3 Xrotation Yrotation Zrotation
												End Site
												{
													OFFSET -0.178703 5.185913 0.000177
												}
											}
										}
									}
								}
								JOINT LeftHandThumb1
								{
									OFFSET 6.534897 -5.032593 5.900300
									CHANNELS 3 Xrotation Yrotation Zrotation
									JOINT LeftHandThumb2
									{
										OFFSET 3.818176 -2.204422 2.204423
										CHANNELS 3 Xrotation Yrotation Zrotation
										JOINT LeftHandThumb3
										{
											OFFSET 3.252098 -1.877594 1.877601
											CHANNELS 3 Xrotation Yrotation Zrotation
											JOINT LeftHandThumb4
											{
												OFFSET 5.251778 -3.032120 3.032117
												CHANNELS 3 Xrotation Yrotation Zrotation
												End Site
												{
													OFFSET 0.000023 6.780014 0.000000
												}
											}
										}
									}
								}
							}
						}
					}
				}
				JOINT RightShoulder
				{
					OFFSET -12.896300 26.716293 -4.548400
					CHANNELS 3 Xrotation Yrotation Zrotation
					JOINT RightArm
					{
						OFFSET -19.027000 -4.857010 -1.718400
						CHANNELS 3 Xrotation Yrotation Zrotation
						JOINT RightForeArm
						{
							OFFSET -24.179897 0.000000 0.000000
							CHANNELS 3 Xrotation Yrotation Zrotation
							JOINT RightHand
							{
								OFFSET -27.156403 0.000000 0.000000
								CHANNELS 3 Xrotation Yrotation Zrotation
								JOINT RightHandThumb1
								{
									OFFSET -6.591202 -4.852203 5.988100
									CHANNELS 3 Xrotation Yrotation Zrotation
									JOINT RightHandThumb2
									{
										OFFSET -3.818176 -2.204422 2.204423
										CHANNELS 3 Xrotation Yrotation Zrotation
										JOINT RightHandThumb3
										{
											OFFSET -3.252098 -1.877594 1.877601
											CHANNELS 3 Xrotation Yrotation Zrotation
											JOINT RightHandThumb4
											{
												OFFSET -5.251778 -3.032120 3.032117
												CHANNELS 3 Xrotation Yrotation Zrotation
												End Site
												{
													OFFSET -0.000023 6.780014 0.000000
												}
											}
										}
									}
								}
								JOINT RightHandIndex1
								{
									OFFSET -16.029404 0.000000 0.000000
									CHANNELS 3 Xrotation Yrotation Zrotation
									JOINT RightHandIndex2
									{
										OFFSET -5.213303 0.000000 0.000000
										CHANNELS 3 Xrotation Yrotation Zrotation
										JOINT RightHandIndex3
										{
											OFFSET -6.386528 0.000000 0.000000
											CHANNELS 3 Xrotation Yrotation Zrotation
											JOINT RightHandIndex4
											{
												OFFSET -5.189026 0.000000 0.000000
												CHANNELS 3 Xrotation Yrotation Zrotation
												End Site
												{
													OFFSET 0.236702 5.183624 0.001972
												}
											}
										}
									}
								}
							}
						}
					}
				}
			}
		}
	}
	JOINT LeftUpLeg
	{
		OFFSET 14.073000 -7.904099 -1.463000
		CHANNELS 3 Xrotation Yrotation Zrotation
		JOINT LeftLeg
		{
			OFFSET -0.109806 -34.073280 4.093200
			CHANNELS 3 Xrotation Yrotation Zrotation
			JOINT LeftFoot
			{
				OFFSET 0.109806 -29.899420 -6.319000
				CHANNELS 3 Xrotation Yrotation Zrotation
				JOINT LeftToeBase
				{
					OFFSET 1.551100 -14.988700 20.535801
					CHANNELS 3 Xrotation Yrotation Zrotation
					JOINT LeftToe_End
					{
						OFFSET 0.221200 0.570800 13.248301
						CHANNELS 3 Xrotation Yrotation Zrotation
						End Site
						{
							OFFSET 0.000000 13.262435 0.000000
						}
					}
				}
			}
		}
	}
	JOINT RightUpLeg
	{
		OFFSET -13.839300 -7.904099 -1.463000
		CHANNELS 3 Xrotation Yrotation Zrotation
		JOINT RightLeg
		{
			OFFSET 0.109694 -34.073219 4.093300
			CHANNELS 3 Xrotation Yrotation Zrotation
			JOINT RightFoot
			{
				OFFSET -0.109694 -29.899384 -6.319200
				CHANNELS 3 Xrotation Yrotation Zrotation
				JOINT RightToeBase
				{
					OFFSET -1.551100 -14.988700 20.535801
					CHANNELS 3 Xrotation Yrotation Zrotation
					JOINT RightToe_End
					{
						OFFSET -0.221200 0.570900 13.248299
						CHANNELS 3 Xrotation Yrotation Zrotation
						End Site
						{
							OFFSET 0.000000 13.262440 0.000000
						}
					}
				}
			}
		}
	}
}
MOTION
Frames: 9
Frame Time: 0.033333
1.605561 85.142532 -4.727506 -4.029447 -2.185874 -2.074595 1.030555 -1.925717 1.476710 2.775703 -0.294068 0.519628 2.776570 -0.302096 0.509089 10.970186 -0.541720 -0.661827 1.792282 -3.657559 1.784558 -0.000001 0.000000 0.000000 1.125168 -0.597678 -7.186440 16.418533 -57.610262 -54.966518 0.000004 -5.335780 -0.000000 -3.414392 -9.556253 -3.837852 0.762209 4.869471 -9.937213 0.756248 3.142227 -27.058397 0.014587 0.448864 -3.722107 -0.000002 0.000000 -0.000002 12.990854 26.240878 -4.033709 1.207953 -0.209719 -1.050987 -4.255793 -4.908062 3.439018 -0.000001 0.000001 0.000000 3.249292 6.223592 6.013266 2.711526 43.936384 64.543881 0.000001 8.642833 0.000010 -0.538728 10.455841 -4.790562 18.809504 -19.166423 16.610916 1.571727 0.187004 1.723073 -5.970875 8.486720 -3.061256 0.000002 -0.000000 -0.000000 -0.028202 -0.522474 10.985749 1.610779 -4.454987 39.740452 0.109014 -1.228864 10.137887 0.000002 -0.000001 0.000001 -7.524214 8.155590 5.853615 27.050997 6.956244 2.017027 -14.827951 6.965111 -6.091308 -0.003934 -0.000002 0.000002 -0.000000 0.000000 0.000000 -7.135765 -12.246661 -3.478714 22.875671 2.578346 -1.613450 -11.440744 -3.446266 3.999658 -1.067963 0.000005 -0.000001 -0.000000 0.000002 0.000000 
1.607771 85.114395 -4.727197 -3.988563 -2.005172 -2.053070 1.089698 -1.876983 1.429251 2.815024 -0.287742 0.450905 2.815653 -0.295716 0.440511 10.899063 -0.570980 -0.389269 1.764476 -3.731582 1.790119 -0.000000 0.000000 -0.000000 1.122924 -0.623300 -6.964993 16.556744 -57.811602 -54.836191 0.000007 -5.240876 0.000018 -3.201379 -9.686067 -3.721280 0.648839 4.126517 -10.361411 0.653120 2.931823 -25.111592 0.010627 0.383525 -3.179778 -0.000001 -0.000000 0.000003 12.602810 25.917259 -3.655458 1.207957 -0.209719 -1.050986 -4.215259 -4.836818 3.432300 0.000002 0.000003 0.000001 3.235989 6.154357 6.148774 2.953733 43.766585 64.412311 -0.000003 8.870916 0.000000 -0.287155 10.395040 -4.905995 18.454889 -19.103146 16.160743 1.571774 0.186947 1.723067 -5.970557 8.486050 -3.061127 0.000000 -0.000000 -0.000001 -0.009841 -0.628292 11.143774 1.599502 -4.441455 39.595477 0.114057 -1.256783 10.370783 0.000001 -0.000002 0.000001 -7.676950 8.134236 5.845963 27.181429 6.873275 2.032920 -14.863212 6.886986 -6.071069 -0.003934 -0.000002 0.000002 -0.000000 0.000000 0.000000 -7.193313 -12.232037 -3.522389 23.008483 2.366004 -1.596142 -11.548260 -3.432233 4.055133 -1.063191 0.000012 0.000000 -0.000000 0.000000 0.000000 
1.602740 85.097252 -4.730606 -3.973401 -1.871637 -2.043852 1.149763 -1.801146 1.392606 2.862486 -0.276941 0.381924 2.862865 -0.284918 0.371810 10.758655 -0.610759 -0.119575 1.812996 -3.865155 1.817561 -0.000001 -0.000000 -0.000000 1.124025 -0.667898 -6.726125 16.612092 -58.051847 -54.766888 0.000001 -5.152858 0.000006 -3.098291 -9.857319 -3.596079 0.528525 3.404647 -10.769133 0.554046 2.710706 -23.099307 0.007394 0.319550 -2.649057 -0.000003 0.000001 0.000000 12.183578 25.651964 -3.193583 1.207954 -0.209719 -1.050986 -4.225163 -4.854862 3.434454 0.000001 -0.000000 -0.000001 3.220848 6.078780 6.272226 3.121931 43.562820 64.320294 0.000003 9.125315 0.000019 -0.295115 10.338485 -4.879528 18.302914 -19.100527 15.950664 1.571718 0.186991 1.723089 -5.971914 8.488395 -3.061241 -0.000002 -0.000000 -0.000000 0.003956 -0.716570 11.441092 1.589286 -4.429098 39.463020 0.112788 -1.249864 10.313189 0.000002 0.000000 -0.000002 -7.765710 8.048697 5.846263 27.269132 6.866638 2.030356 -14.876748 6.844453 -6.071952 -0.003934 -0.000002 0.000002 0.000000 0.000000 0.000000 -7.200140 -12.091060 -3.531807 23.080025 2.055836 -1.568879 -11.612765 -3.390709 4.127787 -1.062537 0.000010 -0.000001 -0.000000 -0.000000 0.000000 
1.589977 85.092583 -4.742282 -3.989812 -1.805701 -2.044712 1.191681 -1.714964 1.369176 2.916151 -0.263909 0.329797 2.916335 -0.271939 0.320006 10.584464 -0.651641 0.090693 1.929255 -4.015587 1.839360 -0.000001 0.000001 0.000000 1.128709 -0.722743 -6.515260 16.556589 -58.251794 -54.790797 -0.000004 -5.089734 -0.000005 -3.051948 -10.012236 -3.458986 0.414793 2.772708 -11.110231 0.477614 2.524170 -21.425656 0.005180 0.267591 -2.218096 -0.000000 0.000001 0.000001 11.785621 25.459320 -2.717433 1.207957 -0.209719 -1.050986 -4.265044 -4.925915 3.441866 -0.000002 -0.000001 0.000000 3.207881 6.015706 6.360869 3.066456 43.317411 64.373679 0.000000 9.206316 0.000001 -0.537267 10.364988 -4.668279 18.352932 -19.151301 15.981215 1.571729 0.186972 1.723072 -5.983409 8.508970 -3.062741 0.000003 0.000001 -0.000001 0.012060 -0.774957 11.762305 1.584196 -4.422939 39.397255 0.105779 -1.210616 9.985777 -0.000001 0.000000 -0.000000 -7.780001 7.921567 5.856693 27.305023 6.936609 2.005254 -14.865215 6.834762 -6.091763 -0.003934 0.000000 0.000002 -0.000000 0.000002 0.000000 -7.168699 -11.942966 -3.509146 23.095161 1.813308 -1.556587 -11.629236 -3.358688 4.179287 -1.066799 0.000003 -0.000001 -0.000000 0.000000 0.000000 
1.573301 85.096268 -4.762955 -4.004295 -1.795949 -2.049703 1.206820 -1.635459 1.353367 2.969341 -0.251286 0.300719 2.969419 -0.259406 0.291217 10.424566 -0.685026 0.221950 2.082753 -4.136628 1.827291 0.000001 -0.000001 0.000000 1.135038 -0.773981 -6.355127 16.376147 -58.351310 -54.930345 -0.000004 -5.064362 -0.000003 -2.996100 -10.095685 -3.304716 0.322357 2.288819 -11.338568 0.436309 2.416426 -20.467828 0.004086 0.237742 -1.970549 -0.000000 -0.000001 0.000001 11.448355 25.341247 -2.286726 1.207954 -0.209716 -1.050986 -4.314085 -5.013267 3.450816 0.000000 0.000001 -0.000001 3.200201 5.978055 6.414295 2.776182 43.036530 64.590073 0.000019 9.062090 -0.000006 -0.872248 10.482532 -4.327884 18.498792 -19.208722 16.129335 1.571722 0.186986 1.723095 -6.007581 8.552438 -3.066051 0.000000 0.000000 0.000000 0.010536 -0.776624 11.922800 1.591747 -4.432082 39.494971 0.097675 -1.163718 9.595140 -0.000001 -0.000002 -0.000000 -7.772982 7.801588 5.875299 27.303358 7.026057 1.965562 -14.834100 6.850124 -6.111497 -0.003934 -0.000002 0.000002 -0.000000 0.000000 0.000000 -7.153726 -11.903708 -3.471358 23.078530 1.751898 -1.576053 -11.608622 -3.352651 4.187377 -1.071784 0.000005 -0.000001 -0.000000 0.000000 0.000000 
1.558444 85.103348 -4.790869 -3.975565 -1.811604 -2.055123 1.198332 -1.574568 1.337677 3.012203 -0.241265 0.288758 3.012244 -0.249450 0.279471 10.325352 -0.705574 0.289833 2.227059 -4.194990 1.767731 0.000001 0.000000 0.000000 1.140047 -0.808017 -6.246013 16.096497 -58.335164 -55.171960 -0.000001 -5.078645 0.000006 -2.887152 -10.082975 -3.133006 0.263695 1.994093 -11.424784 0.433707 2.409427 -20.405774 0.003987 0.234517 -1.943830 -0.000002 -0.000000 -0.000000 11.192735 25.289738 -1.939669 1.207954 -0.209717 -1.050987 -4.357969 -5.091414 3.458765 0.000001 0.000002 0.000001 3.197060 5.962952 6.447380 2.404694 42.767229 64.870753 -0.000010 8.836843 -0.000011 -1.114529 10.625773 -4.021802 18.558215 -19.226605 16.173816 1.571739 0.186955 1.723084 -6.038423 8.608047 -3.070321 -0.000002 -0.000000 0.000000 -0.004238 -0.693436 11.720578 1.619672 -4.465645 39.855103 0.094580 -1.145271 9.441534 -0.000003 0.000001 0.000001 -7.813433 7.729816 5.898585 27.286414 7.064146 1.925412 -14.791447 6.882373 -6.109629 -0.003934 -0.000002 0.000002 -0.000000 0.000000 0.000000 -7.204260 -12.026631 -3.435790 23.049308 1.896494 -1.625084 -11.563954 -3.374744 4.149129 -1.072778 0.000014 0.000002 -0.000000 -0.000000 0.000000 
1.548832 85.110985 -4.822811 -3.899010 -1.835662 -2.063196 1.179311 -1.537311 1.318638 3.034710 -0.235115 0.280492 3.034738 -0.243315 0.271347 10.320610 -0.711362 0.328976 2.308422 -4.175827 1.666600 0.000000 0.000000 -0.000000 1.141373 -0.816843 -6.176263 15.789773 -58.238421 -55.456498 0.000003 -5.122099 0.000019 -2.726686 -9.993759 -2.954628 0.245224 1.906077 -11.365014 0.464966 2.491753 -21.136809 0.004684 0.254400 -2.108641 0.000001 -0.000000 0.000000 11.020714 25.290843 -1.688363 1.207952 -0.209719 -1.050986 -4.391696 -5.151563 3.464917 -0.000001 0.000001 -0.000001 3.192255 5.948037 6.475147 2.223937 42.616764 65.022110 -0.000005 8.838107 -0.000013 -1.107564 10.685384 -3.998798 18.336030 -19.192207 15.864919 1.571720 0.186931 1.723061 -6.061913 8.650590 -3.073631 -0.000003 0.000000 0.000000 -0.030258 -0.513503 11.007761 1.672088 -4.527514 40.523666 0.101438 -1.185726 9.778367 0.000001 0.000003 -0.000001 -7.918409 7.728350 5.927219 27.269757 7.017340 1.895281 -14.747451 6.928205 -6.078713 -0.003934 -0.000000 0.000002 -0.000000 0.000002 0.000000 -7.317390 -12.259382 -3.405127 23.013810 2.174944 -1.686981 -11.503727 -3.418320 4.080907 -1.070600 -0.000009 0.000000 -0.000000 -0.000003 -0.000000 
1.544894 85.119644 -4.854095 -3.816548 -1.873430 -2.075283 1.166819 -1.524025 1.300004 3.030261 -0.233314 0.263143 3.030232 -0.241469 0.254092 10.426185 -0.702581 0.370958 2.279838 -4.080326 1.544793 0.000001 0.000001 -0.000000 1.138414 -0.800909 -6.136457 15.554176 -58.128243 -55.693663 -0.000001 -5.176167 -0.000001 -2.559694 -9.885509 -2.791206 0.265101 2.015000 -11.182576 0.517902 2.624433 -22.322720 0.005981 0.287306 -2.381439 0.000000 -0.000000 0.000000 10.919228 25.328011 -1.522448 1.207956 -0.209723 -1.050987 -4.418757 -5.199893 3.469919 -0.000000 0.000000 -0.000002 3.175497 5.897249 6.497820 2.528898 42.737166 64.812840 0.000003 9.439518 0.000007 -0.768878 10.550913 -4.533065 17.702978 -19.122341 15.023404 1.571729 0.187017 1.723117 -6.060332 8.647802 -3.073511 0.000000 -0.000001 0.000000 -0.058007 -0.253152 9.756738 1.745897 -4.612187 41.450058 0.121019 -1.294325 10.684356 -0.000001 0.000000 -0.000002 -8.031315 7.788924 5.957456 27.250380 6.916368 1.877670 -14.709781 6.985001 -6.031248 -0.003934 -0.000002 0.000002 -0.000000 -0.000000 0.000000 -7.434853 -12.481387 -3.374545 22.967903 2.452459 -1.744477 -11.433126 -3.460865 4.015236 -1.069317 -0.000017 -0.000002 -0.000000 -0.000000 0.000000 
1.546356 85.133087 -4.880162 -3.781204 -1.928478 -2.081762 1.172910 -1.534455 1.291175 2.998725 -0.235975 0.232181 2.998584 -0.244063 0.223186 10.638842 -0.680186 0.426038 2.119027 -3.921665 1.430214 -0.000002 0.000000 0.000000 1.132584 -0.768473 -6.129507 15.476517 -58.069292 -55.794719 -0.000010 -5.221940 0.000001 -2.447895 -9.826878 -2.667649 0.314294 2.284017 -10.921834 0.575305 2.759936 -23.544717 0.007459 0.321251 -2.663013 -0.000001 0.000001 -0.000000 10.866102 25.384499 -1.417461 1.207958 -0.209716 -1.050985 -4.447197 -5.250820 3.475187 -0.000002 0.000001 0.000001 3.136237 5.774295 6.493825 3.539386 43.260970 64.041643 -0.000019 10.960422 -0.000007 -0.091046 10.154228 -5.843716 16.658145 -19.026325 13.637035 1.571751 0.186956 1.723094 -6.018761 8.572868 -3.067813 -0.000001 -0.000000 -0.000001 -0.075532 0.045109 8.093244 1.829576 -4.704897 42.480017 0.152704 -1.452115 12.005712 0.000002 0.000001 0.000002 -8.064971 7.860476 5.966637 27.198303 6.844855 1.871724 -14.669298 7.040142 -5.993252 -0.003934 -0.000002 0.000002 0.000000 0.000000 0.000000 -7.489651 -12.603977 -3.353018 22.905226 2.603264 -1.790555 -11.358065 -3.459179 3.988241 -1.071620 -0.000000 -0.000000 -0.000000 -0.000000 0.000000 
